<svg id="svg" version="1.1" xmlns="http://www.w3.org/2000/svg" viewBox="0 0 562 791" style="display: block;"><path d="M0 0 C185.46 0 370.92 0 562 0 C562 261.03 562 522.06 562 791 C376.54 791 191.08 791 0 791 C0 529.97 0 268.94 0 0 Z " transform="translate(0,0)" style="fill: #FEFEFE;"/><path d="M0 0 C1.02834961 0.47453613 2.05669922 0.94907227 3.11621094 1.43798828 C14.04572431 6.51906801 23.6170683 11.19792171 32 20 C33.36283252 21.20144446 34.73757377 22.38954233 36.125 23.5625 C50.10170188 35.80983309 50.10170188 35.80983309 51.5625 44.25 C49.79352461 56.04316928 38.98550468 64.87852733 31 73 C29.72842041 74.29429932 29.72842041 74.29429932 28.43115234 75.61474609 C25.66946779 78.41690574 22.89968411 81.21071357 20.125 84 C18.80616821 85.32608276 18.80616821 85.32608276 17.46069336 86.67895508 C12.4664647 91.65994021 7.36010416 96.41737059 2 101 C0.93983661 101.93702917 -0.11883449 102.87575029 -1.17578125 103.81640625 C-9.26054256 110.92725432 -17.73687985 117.36515758 -26.45703125 123.67578125 C-33.53743931 128.82433856 -40.3706663 134.12370089 -46.75 140.125 C-47.55630859 140.87330078 -47.55630859 140.87330078 -48.37890625 141.63671875 C-60.94992089 152.7430071 -60.94992089 152.7430071 -66.4375 167.9375 C-66.26067366 174.96339992 -63.46698086 181.5069735 -61 188 C-60.60039062 189.07894531 -60.20078125 190.15789062 -59.7890625 191.26953125 C-56.44346036 199.65381299 -52.08163149 207.33089726 -47.58618164 215.14038086 C-42.49963731 224.01015316 -37.69692892 233.01404361 -32.9375 242.0625 C-31.3872453 245.00939215 -29.83672442 247.95614289 -28.28515625 250.90234375 C-27.72553192 251.96500458 -27.72553192 251.96500458 -27.15460205 253.0491333 C-24.13022007 258.77972683 -21.01484853 264.45693345 -17.875 270.125 C-6.71956997 290.40777819 4.24966128 311.14989031 12 333 C12.24782227 333.67804688 12.49564453 334.35609375 12.75097656 335.0546875 C19.13581698 352.72256354 20.25796138 370.56461097 20.6550293 389.20898438 C20.86053487 398.65028242 21.34322325 408.01851805 22.0625 417.4375 C25.27304195 460.75503019 25.27304195 460.75503019 13.28515625 476.2109375 C6.751451 483.20048265 -1.64317606 488.31916929 -9.73828125 493.32421875 C-19.0077742 499.06831696 -26.09340115 503.91969286 -29 515 C-29.36032192 518.45017743 -29.33261993 521.84747029 -29.25 525.3125 C-29.23904297 526.24964844 -29.22808594 527.18679688 -29.21679688 528.15234375 C-29.1451683 532.62445832 -28.98713939 537.05127112 -28.5 541.5 C-27.17180755 553.66547287 -27.6168415 566.15522817 -28.8125 578.3125 C-28.91751831 579.44848633 -28.91751831 579.44848633 -29.0246582 580.60742188 C-29.92545014 588.6759311 -32.35295835 595.07060627 -38 601 C-38.99 601.66 -39.98 602.32 -41 603 C-42.35820033 605.50499634 -43.6053389 607.98702837 -44.8125 610.5625 C-55.05690916 631.6330938 -55.05690916 631.6330938 -66.0625 635.75 C-72.22322255 637.55757311 -78.6424028 638.23130048 -85 639 C-84.84402344 640.14855469 -84.68804687 641.29710937 -84.52734375 642.48046875 C-82.80766245 655.84517914 -81.30160761 668.19693615 -89 680 C-90.59346913 681.89025641 -92.19155697 683.77662408 -93.79296875 685.66015625 C-100.0155081 693.42211744 -102.58201226 702.01953005 -105.375 711.4375 C-106.11403164 713.85907486 -106.86084579 716.27783896 -107.61782837 718.69386292 C-108.08156597 720.18058821 -108.53434873 721.6707954 -108.97372437 723.16490173 C-111.48992472 731.38382656 -115.61375559 736.59186582 -123.1875 740.75 C-127.66527254 742.58271664 -132.24577734 742.25827769 -137 742 C-136.2578125 738.21875 -136.2578125 738.21875 -133.9375 736.25 C-133.298125 735.8375 -132.65875 735.425 -132 735 C-132.66 734.01 -133.32 733.02 -134 732 C-138.0661259 734.68636559 -138.0661259 734.68636559 -139.66015625 739.1484375 C-139.77230469 740.08945312 -139.88445312 741.03046875 -140 742 C-142.08268593 742.08126087 -144.16628658 742.13930839 -146.25 742.1875 C-147.41015625 742.22230469 -148.5703125 742.25710938 -149.765625 742.29296875 C-153.22268407 741.97982934 -154.51565563 741.34290892 -157 739 C-155.35 737.02 -153.7 735.04 -152 733 C-152.99 732.67 -153.98 732.34 -155 732 C-157.35953094 734.35953094 -157.49141413 735.77895617 -158 739 C-159.98 738.67 -161.96 738.34 -164 738 C-164.625 735.6875 -164.625 735.6875 -165 733 C-164.34 732.01 -163.68 731.02 -163 730 C-163 729.34 -163 728.68 -163 728 C-161.61766625 727.14980358 -160.19049722 726.3724278 -158.75 725.625 C-152.08121773 721.71736111 -142.56318195 715.32326827 -140.27734375 707.5390625 C-140.25966256 705.30846937 -140.25966256 705.30846937 -140.6640625 703.1171875 C-141.03557604 700.77578824 -140.69942156 699.23680871 -140.1875 696.9375 C-138.85710053 685.92796233 -145.46078618 673.36785304 -152 665 C-153.88678725 662.71131871 -153.88678725 662.71131871 -156 661 C-159.6675213 660.66582071 -159.6675213 660.66582071 -163 661 C-162.566875 661.92619141 -162.566875 661.92619141 -162.125 662.87109375 C-159.59669047 668.63879986 -157.64845699 673.69957395 -159 680 C-161.74695732 686.9723435 -165.54506355 693.02100634 -170 699 C-170.59425781 700.08925781 -171.18851563 701.17851563 -171.80078125 702.30078125 C-173.94889156 706.11021073 -176.58050713 709.19581732 -179.5625 712.375 C-180.04396484 712.90738281 -180.52542969 713.43976562 -181.02148438 713.98828125 C-183.91433357 717.11590088 -185.79791404 718.82501328 -190.16043091 719.17167664 C-190.99710297 719.19325333 -191.83377502 719.21483002 -192.69580078 719.23706055 C-193.64754181 719.26346115 -194.59928284 719.28986176 -195.5798645 719.31706238 C-196.60796234 719.34004898 -197.63606018 719.36303558 -198.6953125 719.38671875 C-199.7573288 719.41224319 -200.81934509 719.43776764 -201.9135437 719.46406555 C-204.1646358 719.51610527 -206.41578966 719.56552842 -208.66699219 719.61254883 C-212.09087021 719.68676025 -215.51404786 719.77758204 -218.9375 719.86914062 C-221.12758163 719.91769397 -223.31768561 719.9652515 -225.5078125 720.01171875 C-227.03174118 720.05530769 -227.03174118 720.05530769 -228.5864563 720.09977722 C-234.73739555 720.20715046 -240.04720465 719.57293682 -246 718 C-246.33 716.68 -246.66 715.36 -247 714 C-245.68 713.34 -244.36 712.68 -243 712 C-244.65 712 -246.3 712 -248 712 C-248 712.66 -248 713.32 -248 714 C-249.65 714 -251.3 714 -253 714 C-251.70700306 711.11562221 -250.34058637 709.12780579 -248 707 C-251.57104439 708.87949705 -253.54744301 710.17053157 -255 714 C-256.32 714 -257.64 714 -259 714 C-259.33 712.35 -259.66 710.7 -260 709 C-256.11163651 705.44280744 -252.90439823 704.16810325 -247.79296875 703 C-247.10874344 702.83757813 -246.42451813 702.67515625 -245.71955872 702.5078125 C-243.54492539 701.99259706 -241.36689166 701.49466853 -239.1875 701 C-225.99247722 697.98298463 -214.65519289 695.38266964 -206 684 C-204.3911097 680.24192041 -203.85234864 676.92298317 -204.1640625 672.86328125 C-204.85230738 670.76698308 -204.85230738 670.76698308 -207.22045898 670.04394531 C-208.59633179 669.52719238 -208.59633179 669.52719238 -210 669 C-211.77704732 668.16025573 -213.54625727 667.30378785 -215.30859375 666.43359375 C-216.30310547 665.94826172 -217.29761719 665.46292969 -218.32226562 664.96289062 C-220.39748585 663.94674831 -222.4704167 662.92591697 -224.54101562 661.90039062 C-225.53681641 661.41634766 -226.53261719 660.93230469 -227.55859375 660.43359375 C-228.45892334 659.99072021 -229.35925293 659.54784668 -230.28686523 659.09155273 C-233.22784928 657.90833131 -235.84556571 657.29640091 -239 657 C-241.19845683 658.31398045 -241.19845683 658.31398045 -242.9375 660.4375 C-243.61683594 661.17871094 -244.29617188 661.91992188 -244.99609375 662.68359375 C-245.65738281 663.44800781 -246.31867188 664.21242188 -247 665 C-247.88365234 666.00740234 -247.88365234 666.00740234 -248.78515625 667.03515625 C-249.93636152 668.35419099 -251.08608232 669.67452267 -252.234375 670.99609375 C-262.61028309 682.77229032 -274.13970113 689.34763579 -289 694 C-289.99 694 -290.98 694 -292 694 C-292.40049561 695.09199707 -292.40049561 695.09199707 -292.80908203 696.20605469 C-293.9908049 698.9784279 -295.34937081 701.22404813 -297.0546875 703.703125 C-297.66344727 704.59273926 -298.27220703 705.48235352 -298.89941406 706.39892578 C-299.55135742 707.33978027 -300.20330078 708.28063477 -300.875 709.25 C-301.54756836 710.22565918 -302.22013672 711.20131836 -302.91308594 712.20654297 C-304.2863789 714.19564052 -305.66202378 716.18311638 -307.04003906 718.16894531 C-308.79660634 720.70620916 -310.53758617 723.25323418 -312.2734375 725.8046875 C-331.33183745 753.60883358 -331.33183745 753.60883358 -346 757 C-349.01882557 757.23742929 -352.01282058 757.21099109 -355.0390625 757.16015625 C-356.30488663 757.1523539 -356.30488663 757.1523539 -357.59628296 757.14439392 C-360.27270375 757.12669973 -362.94872827 757.09554337 -365.625 757.0625 C-368.30837316 757.03479911 -370.99168955 757.01009715 -373.67514038 756.99131775 C-375.33911086 756.97914721 -377.00305339 756.96163011 -378.66690063 756.93800354 C-382.59132156 756.90418356 -386.16667356 757.02128856 -390 758 C-390.99 754.04 -390.99 754.04 -392 750 C-397.61925626 750.40137545 -400.08656763 752.17974459 -404 756 C-404 756.66 -404 757.32 -404 758 C-405.32 757.67 -406.64 757.34 -408 757 C-408.71484375 755.25 -408.71484375 755.25 -409 753 C-405.00720648 747.17575418 -399.36210041 743.72661446 -393 741 C-394.03060547 740.72736328 -394.03060547 740.72736328 -395.08203125 740.44921875 C-396.43361328 740.07216797 -396.43361328 740.07216797 -397.8125 739.6875 C-399.15248047 739.32205078 -399.15248047 739.32205078 -400.51953125 738.94921875 C-403.07486087 737.97135245 -404.33709197 737.14907383 -406 735 C-406 734.34 -406 733.68 -406 733 C-406.66 733 -407.32 733 -408 733 C-408.33 735.64 -408.66 738.28 -409 741 C-410.32 741.33 -411.64 741.66 -413 742 C-413.69584017 737.97959015 -414.1700097 734.91736581 -413 731 C-414.60540659 731.78914921 -416.20928016 732.58141765 -417.8125 733.375 C-418.70582031 733.81585937 -419.59914063 734.25671875 -420.51953125 734.7109375 C-423.14556381 736.01866905 -423.14556381 736.01866905 -426 738 C-426.33 736.35 -426.66 734.7 -427 733 C-419.73090788 728.32052195 -413.15994561 724.70336708 -404.625 723 C-397.43441446 721.51845384 -393.34402883 718.94320428 -389 713 C-388.319375 712.154375 -387.63875 711.30875 -386.9375 710.4375 C-384.74136037 704.72753696 -387.51572602 699.0150494 -389.7734375 693.6875 C-394.55098865 683.17455203 -394.55098865 683.17455203 -402.6796875 675.21875 C-403.11539063 674.8165625 -403.55109375 674.414375 -404 674 C-404 673.01 -404 672.02 -404 671 C-403.35933594 670.731875 -402.71867187 670.46375 -402.05859375 670.1875 C-393.95792942 666.51745237 -388.29972283 661.96773564 -385.0625 653.5 C-384.5365625 651.7675 -384.5365625 651.7675 -384 650 C-383.34 650 -382.68 650 -382 650 C-381.72687988 649.41009277 -381.45375977 648.82018555 -381.17236328 648.21240234 C-380.03387905 646.06393418 -378.82556941 644.43731405 -377.2421875 642.6015625 C-365.96960478 629.2905898 -356.69840735 616.06755249 -354.203125 598.359375 C-353.15232674 591.850849 -350.89087457 586.32606541 -348.125 580.375 C-347.25121857 578.44593952 -346.37881011 576.51625652 -345.5078125 574.5859375 C-344.87721924 573.1925415 -344.87721924 573.1925415 -344.23388672 571.77099609 C-343.02140054 569.04806018 -341.84245188 566.31684425 -340.703125 563.5625 C-340.3824707 562.78777344 -340.06181641 562.01304687 -339.73144531 561.21484375 C-338.29127703 556.85396037 -338.27524536 552.81188661 -340 548.5 C-340.495 547.7575 -340.495 547.7575 -341 547 C-336.81998005 546.91803882 -333.07787895 547.10554296 -329 548 C-330.07681448 545.93408908 -331.1617466 543.87240822 -332.25 541.8125 C-332.85328125 540.66394531 -333.4565625 539.51539063 -334.078125 538.33203125 C-337.12399485 533.05128534 -340.18738777 529.58477926 -345.25 526.1875 C-346.14203125 525.58292969 -347.0340625 524.97835937 -347.953125 524.35546875 C-348.62859375 523.90816406 -349.3040625 523.46085938 -350 523 C-346.62329399 514.51986331 -335.04396833 507.71166466 -327 504 C-321.6107273 502.374927 -316.76401241 501.70827701 -311.125 501.8125 C-309.82820313 501.81894531 -308.53140625 501.82539062 -307.1953125 501.83203125 C-305.46351977 501.88733944 -303.73175248 501.94344569 -302 502 C-300.81245117 502.01256836 -299.62490234 502.02513672 -298.40136719 502.03808594 C-285.20352703 502.33723329 -272.58286859 505.02115243 -259.71728516 507.81787109 C-256.03732774 508.61689508 -252.35328984 509.39410544 -248.66796875 510.16796875 C-215.11277095 517.29167538 -183.29675372 527.1733978 -151.79736328 540.68359375 C-125.63268677 552.41025103 -125.63268677 552.41025103 -97.70703125 553.09375 C-81.97834952 546.73872708 -75.87096693 526.93508788 -69.70166016 512.54443359 C-65.06692191 501.49505292 -61.15628121 490.17609852 -57.1875 478.875 C-55.95549361 475.38944153 -54.72115789 471.9047195 -53.48558044 468.42042542 C-52.69988215 466.20306116 -51.91634992 463.98492801 -51.13514709 461.76597595 C-49.21537411 456.33076867 -47.21415341 450.958728 -45.0390625 445.62109375 C-42.79551692 439.88001483 -41.81990189 434.30054959 -41.1875 428.1875 C-41.07132324 427.14634033 -40.95514648 426.10518066 -40.83544922 425.0324707 C-38.53203717 403.09577845 -42.03828799 383.25244512 -47.8125 362.125 C-48.26471042 360.4488569 -48.71644679 358.77258584 -49.16772461 357.09619141 C-50.04654975 353.83914861 -50.9318519 350.58397066 -51.82226562 347.33007812 C-52.79940339 343.75293799 -53.74305254 340.16815379 -54.671875 336.578125 C-59.38882394 318.67280683 -67.60743477 302.66456867 -75.91796875 286.19433594 C-82.25182196 273.60360342 -88.1598647 260.82571149 -94 248 C-94.51981445 246.86385254 -95.03962891 245.72770508 -95.57519531 244.55712891 C-131.43729303 165.986533 -131.43729303 165.986533 -121 134 C-113.7032768 115.36084568 -98.18900858 100.39812301 -82.765625 88.19921875 C-79.67707427 85.74321019 -76.68383529 83.19174673 -73.6875 80.625 C-66.95051312 74.8795866 -59.99710956 69.42354669 -53 64 C-59.34423074 65.32446245 -65.45516239 66.97688812 -71.6171875 68.9765625 C-72.51382111 69.26550385 -73.41045471 69.55444519 -74.33425903 69.85214233 C-76.22582976 70.4635208 -78.11667969 71.07713348 -80.00683594 71.69287109 C-82.82984313 72.6103244 -85.65686933 73.51449079 -88.484375 74.41796875 C-123.19583167 85.62252914 -145.38548328 98.17325896 -164.68896484 129.85888672 C-165.74702396 131.58685291 -166.83224648 133.29816946 -167.92578125 135.00390625 C-172.93793799 143.27979296 -174.86620307 152.65659071 -177 162 C-177.20238281 162.84175781 -177.40476562 163.68351563 -177.61328125 164.55078125 C-179.64836083 177.43961858 -177.76169683 188.99689916 -173 201 C-172.71543945 201.73395996 -172.43087891 202.46791992 -172.13769531 203.22412109 C-163.6987272 224.70143061 -152.72961838 245.32032742 -141.79711914 265.6171875 C-138.08899415 272.61312687 -134.80730355 279.79814957 -131.48950195 286.98425293 C-121.0515303 309.56637837 -108.35493509 329.30436832 -93.63623047 349.35107422 C-92.46588373 350.94517279 -91.30079707 352.54314711 -90.14111328 354.14501953 C-87.39388122 357.90812667 -84.6049623 361.50356455 -81.453125 364.9375 C-73.79674992 373.52621335 -71.75154113 379.99112937 -72.25537109 391.5546875 C-72.45313821 394.37697926 -72.71394843 397.18543842 -73 400 C-73.11746271 401.47263432 -73.23467769 402.94528844 -73.3515625 404.41796875 C-74.40574655 414.5567389 -76.16325529 424.57810214 -84.11328125 431.578125 C-95.87065153 440.43875188 -112.59172374 441.62642231 -126.8125 443.1875 C-128.23643664 443.35258232 -129.66026553 443.51859666 -131.08398438 443.68554688 C-135.0536913 444.14681989 -139.0259813 444.57745542 -143 445 C-144.00208496 445.11037598 -145.00416992 445.22075195 -146.03662109 445.33447266 C-156.47308562 446.4022421 -166.84899262 446.05947279 -177.30078125 445.37890625 C-178.33905563 445.31468979 -179.37733002 445.25047333 -180.44706726 445.18431091 C-183.73577336 444.98051978 -187.02414793 444.77191981 -190.3125 444.5625 C-246.5941813 441.00604242 -293.65834846 438.88381287 -344.0847168 466.71582031 C-344.71894562 467.06360535 -345.35317444 467.41139038 -346.00662231 467.76971436 C-347.74855118 468.72679782 -349.48587294 469.69225253 -351.22290039 470.65820312 C-354 472 -354 472 -357 472 C-356.65219482 471.16863525 -356.30438965 470.33727051 -355.94604492 469.48071289 C-354.64073917 466.35628539 -353.33835307 463.23067263 -352.0378418 460.10424805 C-351.47745985 458.75871999 -350.91596284 457.41365571 -350.35327148 456.0690918 C-344.14243758 442.05144866 -344.14243758 442.05144866 -341.3125 427.125 C-341.24675781 426.03445313 -341.18101562 424.94390625 -341.11328125 423.8203125 C-341.03540267 421.88140431 -341 419.9404716 -341 418 C-315.7952542 398.1469468 -279.98459187 394.79976788 -249.359375 390.640625 C-247.90960268 390.44213568 -246.45983976 390.24357768 -245.01008606 390.04495239 C-239.12045081 389.2407594 -233.23058531 388.43973648 -227.33544922 387.67675781 C-185.48994922 383.34489859 -185.48994922 383.34489859 -149 366 C-148.39645951 363.51612102 -148.39645951 363.51612102 -149 361 C-153.82353645 354.5377778 -162.20990984 350.75966067 -169.125 347 C-170.68347656 346.13375 -170.68347656 346.13375 -172.2734375 345.25 C-175.50028718 343.46966914 -178.74438159 341.72712745 -182 340 C-183.10230957 339.41234863 -184.20461914 338.82469727 -185.34033203 338.21923828 C-194.19841004 333.63172618 -203.21240706 330.13114571 -212.625 326.875 C-213.3654657 326.61509277 -214.1059314 326.35518555 -214.86883545 326.08740234 C-224.43272667 322.73358581 -233.9782545 319.60769356 -243.91259766 317.51904297 C-251.95456899 315.79246588 -257.80465866 312.89708727 -263.3125 306.625 C-264.54419922 305.25214844 -264.54419922 305.25214844 -265.80078125 303.8515625 C-269.95421548 298.46611492 -271.65497086 293.12802995 -273.015625 286.59765625 C-273.19232224 285.77936844 -273.36901947 284.96108063 -273.55107117 284.11799622 C-274.12680059 281.43473785 -274.68920897 278.74891732 -275.25 276.0625 C-275.44498077 275.14059875 -275.63996155 274.21869751 -275.84085083 273.26885986 C-278.7495421 259.50938496 -281.44543502 245.71584705 -283.9375 231.875 C-284.08070679 231.08441193 -284.22391357 230.29382385 -284.37145996 229.47927856 C-291.05686991 192.36652061 -295.11292436 155.74062265 -272.984375 123.01953125 C-266.55673916 114.28262889 -258.9693641 106.71008087 -251.3125 99.0625 C-250.76756897 98.51816315 -250.22263794 97.97382629 -249.66119385 97.41299438 C-243.61839621 91.39526824 -237.48873636 85.53934644 -231 80 C-229.09126215 78.30536522 -227.2022549 76.59095263 -225.3125 74.875 C-224.42175781 74.06804687 -223.53101563 73.26109375 -222.61328125 72.4296875 C-220.01197986 70.01113822 -217.50935726 67.5133467 -215 65 C-208.25309542 58.690608 -201.22188189 52.75615048 -194 47 C-192.9790625 46.18402344 -191.958125 45.36804688 -190.90625 44.52734375 C-170.81271742 28.6572338 -148.40500986 18.10443822 -125.06256104 7.90270996 C-122.95487478 6.98025029 -120.84914817 6.05342376 -118.74365234 5.12597656 C-87.40492896 -8.65456558 -87.40492896 -8.65456558 -72 -12 C-70.74316406 -12.31195313 -69.48632812 -12.62390625 -68.19140625 -12.9453125 C-42.70744704 -18.83234574 -22.97680975 -10.71249192 0 0 Z " transform="translate(507,21)" style="fill: #000000;"/><path d="M0 0 C-3.25052485 3.4262289 -6.83239904 6.31006609 -10.5625 9.1875 C-11.82612101 10.17240755 -13.08913574 11.15809341 -14.3515625 12.14453125 C-15.28403809 12.872771 -15.28403809 12.872771 -16.23535156 13.61572266 C-52.66826373 41.2562357 -52.66826373 41.2562357 -71.71875 81.33203125 C-75.57062587 117.87135374 -55.96834291 155.3509339 -40.78613281 187.23779297 C-38.89960884 191.2036653 -37.03875997 195.18135893 -35.1796875 199.16015625 C-33.84970901 202.00295598 -32.51890602 204.84536858 -31.1875 207.6875 C-30.85695618 208.39314087 -30.52641235 209.09878174 -30.18585205 209.82580566 C-26.37680675 217.94698209 -22.50988408 226.03464298 -18.53125 234.07421875 C-17.79658405 235.56483696 -17.06196435 237.05547796 -16.32739258 238.54614258 C-14.94451295 241.35095034 -13.54664021 244.14753496 -12.1394043 246.94018555 C-8.91165052 253.4236491 -6.26982194 259.6685501 -4.71899414 266.78320312 C-3.85521275 270.64778159 -2.78582837 274.43264468 -1.6953125 278.23828125 C-1.27425205 279.72221554 -0.85360488 281.20626716 -0.43334961 282.69042969 C-0.21919403 283.44594116 -0.00503845 284.20145264 0.21560669 284.9798584 C7.81776915 311.87294349 13.99184174 336.90402484 10.875 365 C10.78250977 365.94746094 10.69001953 366.89492188 10.59472656 367.87109375 C9.59876835 376.00429268 6.84482194 383.19786645 3.86474609 390.75628662 C2.3293673 394.74005709 0.93040821 398.77160473 -0.48046875 402.80078125 C-1.08743834 404.52446334 -1.69478454 406.24801285 -2.30249023 407.97143555 C-2.61016327 408.84424164 -2.9178363 409.71704773 -3.23483276 410.61630249 C-27.43191471 479.09783475 -27.43191471 479.09783475 -43.5 489.5625 C-50.7192437 492.52754652 -56.57230436 492.12581383 -64.125 490.875 C-65.09928955 490.71825806 -65.09928955 490.71825806 -66.09326172 490.55834961 C-78.77539873 488.20378958 -90.68412356 482.99157828 -102.45498657 477.89801025 C-133.07912719 464.72236673 -164.03056701 455.41281525 -196.61627197 448.50970459 C-199.77254078 447.83481019 -202.9232488 447.13573569 -206.07432556 446.43707275 C-220.99668752 443.13760062 -235.64719154 439.95389547 -251 440 C-252.49882536 439.95596559 -253.99752995 439.90765117 -255.49609375 439.85546875 C-273.85965641 439.33587575 -284.46356008 445.91389293 -298 458 C-298.33 458.66 -298.66 459.32 -299 460 C-298.42765625 460.27328125 -297.8553125 460.5465625 -297.265625 460.828125 C-286.93482746 466.17164097 -280.64515826 475.06452521 -277 486 C-280.96 485.67 -284.92 485.34 -289 485 C-288.01 486.485 -288.01 486.485 -287 488 C-286.35636351 494.6223043 -287.89877333 499.14902767 -290.625 505.125 C-290.98674316 505.95394775 -291.34848633 506.78289551 -291.72119141 507.63696289 C-293.37466907 511.41764286 -295.07845292 515.17428271 -296.796875 518.92578125 C-299.68941631 525.36240164 -301.57661997 531.07666511 -302.5234375 538.06640625 C-304.97695737 553.169631 -313.28134839 564.82735632 -322.69433594 576.37695312 C-325.09686762 579.36349587 -327.37316003 582.44801471 -329.66015625 585.5234375 C-330.10230469 586.01070312 -330.54445313 586.49796875 -331 587 C-331.66 587 -332.32 587 -333 587 C-333.0825 587.86625 -333.165 588.7325 -333.25 589.625 C-334.79537624 596.5791931 -339.43772431 600.92740506 -345 605 C-350.3 608 -350.3 608 -353 608 C-352.734375 606.1171875 -352.734375 606.1171875 -352 604 C-350.328125 602.9453125 -350.328125 602.9453125 -348.25 602.125 C-342.34221535 599.3926496 -339.57985742 595.6474516 -337.25 589.75 C-335.22045064 584.88231589 -332.16122982 581.6735695 -328.57421875 577.8671875 C-314.83331122 562.56244376 -308.42805922 547.02979805 -304.16796875 527.109375 C-302.82432202 521.74680279 -300.35229193 516.85513807 -298 511.875 C-292.43497685 500.45555341 -292.43497685 500.45555341 -291 488 C-296.52268563 486.8226833 -300.4285876 487.36384535 -305.625 489.3125 C-306.26695312 489.53873047 -306.90890625 489.76496094 -307.5703125 489.99804688 C-310.3215359 490.976197 -313.02918133 492.01257236 -315.7109375 493.16796875 C-318 494 -318 494 -322 494 C-321.67 493.01 -321.34 492.02 -321 491 C-318.30964974 489.79942024 -315.71151241 488.77191505 -312.9375 487.8125 C-312.17888672 487.53986328 -311.42027344 487.26722656 -310.63867188 486.98632812 C-308.7628008 486.31384604 -306.88184797 485.65557049 -305 485 C-309.92411294 484.01410203 -314.84966224 483.03583451 -319.77661133 482.06420898 C-321.44791195 481.73355309 -323.11882233 481.40091762 -324.78930664 481.06616211 C-340.4091252 477.93845824 -355.05973593 475.88538574 -370.9375 478.25 C-371.84048828 478.38059814 -372.74347656 478.51119629 -373.67382812 478.64575195 C-380.60202625 479.68995116 -387.41949776 481.07238705 -394.22631836 482.72949219 C-397.89339891 483.6101065 -401.22301548 484.21393076 -405 484 C-403.57507414 479.06756434 -402.4110568 476.38669052 -397.92211914 473.80493164 C-397.13442139 473.42715576 -396.34672363 473.04937988 -395.53515625 472.66015625 C-394.65786865 472.23887451 -393.78058105 471.81759277 -392.87670898 471.38354492 C-391.94802002 470.9476001 -391.01933105 470.51165527 -390.0625 470.0625 C-389.11769775 469.61302002 -388.17289551 469.16354004 -387.19946289 468.70043945 C-382.17449501 466.34798771 -377.25009472 464.28259668 -371.9375 462.6875 C-368.74307682 461.68497061 -366.96643065 460.97482299 -364.25 458.9375 C-360.54233551 450.22448844 -363.74493687 441.18450479 -366.30834961 432.55029297 C-366.5378833 431.76154785 -366.76741699 430.97280273 -367.00390625 430.16015625 C-367.21861572 429.45511963 -367.4333252 428.75008301 -367.65454102 428.02368164 C-368.063014 425.63086709 -367.86063847 424.26513876 -367 422 C-365.77587891 420.40356445 -365.77587891 420.40356445 -364.2265625 418.86328125 C-363.36853027 418.00416138 -363.36853027 418.00416138 -362.49316406 417.12768555 C-361.87666992 416.52867432 -361.26017578 415.92966309 -360.625 415.3125 C-359.67705566 414.37821167 -359.67705566 414.37821167 -358.70996094 413.42504883 C-354.20537017 409.03801357 -349.51595081 404.97902773 -344.58203125 401.078125 C-341.94130924 398.95276326 -339.4387292 396.72478269 -336.9375 394.4375 C-332.93544427 390.79525055 -328.80973137 387.37867475 -324.5625 384.02734375 C-321.8728672 381.8994178 -319.21500668 379.7365005 -316.5625 377.5625 C-315.64855469 376.81355469 -314.73460937 376.06460937 -313.79296875 375.29296875 C-311.91965804 373.75501995 -310.04727255 372.21594353 -308.17578125 370.67578125 C-302.51727965 366.02744451 -296.80817571 361.4601053 -291 357 C-290.34 357.33 -289.68 357.66 -289 358 C-288.46233492 375.81015578 -297.73411859 393.15129618 -305 409 C-303.70642578 408.30777344 -303.70642578 408.30777344 -302.38671875 407.6015625 C-300.47766952 406.58028233 -298.56746823 405.56133674 -296.65478516 404.546875 C-292.92396866 402.56757148 -289.20758347 400.56734447 -285.51171875 398.5234375 C-269.98373764 390.01836877 -253.64651367 382.59909891 -236 380 C-235.35047363 379.89993652 -234.70094727 379.79987305 -234.03173828 379.69677734 C-198.06252136 374.36146953 -160.06115799 379.02367614 -124.00497437 381.46504211 C-110.59356017 382.36083363 -97.76832603 381.68759821 -84.4375 380.25 C-83.17433456 380.11561523 -83.17433456 380.11561523 -81.88565063 379.97851562 C-52.73602827 377.94335799 -52.73602827 377.94335799 -29 363 C-24.99558961 355.78730829 -23.83189968 347.4358142 -23.18896484 339.30957031 C-23.05365746 337.65581336 -22.89210399 336.00412168 -22.71337891 334.35449219 C-21.7159013 324.53551906 -20.95899598 315.54688429 -26.99414062 307.24951172 C-29.29848951 304.44349519 -31.69970103 301.74448169 -34.16113281 299.07568359 C-37.24758355 295.59174783 -39.88341347 291.80029015 -42.5625 288 C-43.64129381 286.49303604 -44.720719 284.98652386 -45.80078125 283.48046875 C-46.33010254 282.73845215 -46.85942383 281.99643555 -47.40478516 281.23193359 C-48.98536276 279.02047958 -50.57602539 276.81656241 -52.16796875 274.61328125 C-58.59780839 265.67031712 -64.57202762 256.58567924 -70 247 C-70.63035156 245.89269531 -71.26070313 244.78539062 -71.91015625 243.64453125 C-76.045392 236.12978046 -79.65193609 228.43767159 -83.1875 220.625 C-88.59904145 208.67316782 -94.53810318 197.0274917 -100.5625 185.375 C-121.8273311 144.17967129 -121.8273311 144.17967129 -127 126 C-127.1959375 125.37480469 -127.391875 124.74960938 -127.59375 124.10546875 C-129.58599962 113.78025197 -128.16869942 103.03705808 -125.75 92.9375 C-125.44328369 91.6546814 -125.44328369 91.6546814 -125.13037109 90.34594727 C-122.57571347 80.43530459 -118.0985353 72.13503195 -112.6875 63.5 C-112.14416016 62.61441406 -111.60082031 61.72882813 -111.04101562 60.81640625 C-107.36786659 54.90987852 -103.3540753 49.41932574 -99 44 C-98.26475098 43.04492554 -98.26475098 43.04492554 -97.51464844 42.07055664 C-84.50615231 25.27251985 -61.26861182 18.45992046 -42 12 C-41.25133667 11.74829041 -40.50267334 11.49658081 -39.73132324 11.23724365 C-34.74604852 9.5630199 -29.75577673 7.90467055 -24.75982666 6.26257324 C-23.09365642 5.7148412 -21.42808124 5.16529551 -19.76312256 4.6138916 C-17.41229336 3.83752824 -15.05833677 3.07154364 -12.703125 2.30859375 C-11.99892426 2.0746843 -11.29472351 1.84077484 -10.56918335 1.59977722 C-6.94237002 0.43836206 -3.81426327 -0.27264509 0 0 Z " transform="translate(456,84)" style="fill: #FFFFFF;"/><path d="M0 0 C5.82472881 1.27923793 11.52240871 2.21873435 17.46264648 2.76489258 C15.04587181 4.37607569 13.3663044 5.2656185 10.70483398 6.20239258 C9.99713867 6.45762695 9.28944336 6.71286133 8.56030273 6.97583008 C7.07159178 7.50433555 5.58199633 8.03035576 4.09155273 8.55395508 C0.0441484 9.73408908 0.0441484 9.73408908 -2.53735352 12.76489258 C-1.84697998 12.51731201 -1.15660645 12.26973145 -0.4453125 12.01464844 C2.70609332 10.89460071 5.86529308 9.79836953 9.02514648 8.70239258 C10.11118164 8.31245117 11.1972168 7.92250977 12.31616211 7.52075195 C22.48289324 4.02883518 22.48289324 4.02883518 28.46264648 5.76489258 C29.46264648 6.76489258 29.46264648 6.76489258 29.68530273 9.88989258 C29.44490751 14.07361296 28.51807391 16.91228209 26.90014648 20.76489258 C26.63347168 21.41296875 26.36679688 22.06104492 26.09204102 22.72875977 C24.71934728 26.01401521 23.25578987 29.2296161 21.64624023 32.40551758 C18.15633642 39.33268998 15.79673446 45.74405969 14.33764648 53.38989258 C10.36129167 74.14407232 -0.72907476 89.95661382 -15.53735352 104.76489258 C-16.11023807 106.31621857 -16.64734788 107.88090341 -17.16235352 109.45239258 C-19.34792337 115.1086801 -22.54883295 118.39962077 -27.53735352 121.76489258 C-29.18908164 122.46775561 -30.85037269 123.15144501 -32.53735352 123.76489258 C-32.86735352 124.75489258 -33.19735352 125.74489258 -33.53735352 126.76489258 C-42.09087584 128.28551877 -50.8189004 129.33295667 -58.53735352 124.76489258 C-64.1295366 118.43948784 -68.28360656 110.70123037 -69.59985352 102.32739258 C-70.34949818 97.65139118 -71.94927245 95.94523716 -75.53735352 92.76489258 C-81.29045673 85.43619075 -84.02555212 78.34267448 -85.41235352 69.20239258 C-86.03050618 65.39309282 -86.86024923 62.90290546 -89.09985352 59.76489258 C-91.3640941 56.56260947 -91.73635089 54.60575094 -91.72485352 50.70239258 C-92.01266398 43.58652691 -96.04080452 38.89039417 -100.09204102 33.34301758 C-104.38073433 27.31996847 -106.02713546 22.47656906 -104.99047852 15.07348633 C-104.47233634 12.43364125 -103.83479471 10.13081476 -102.53735352 7.76489258 C-99.43686423 6.21464794 -96.95841134 6.47497242 -93.53735352 6.76489258 C-90.84596137 8.55915401 -88.81501178 10.48723431 -86.53735352 12.76489258 C-86.74360352 11.52739258 -86.94985352 10.28989258 -87.16235352 9.01489258 C-87.59842476 5.64579422 -87.57138991 3.63647336 -85.53735352 0.76489258 C-85.53735352 1.42489258 -85.53735352 2.08489258 -85.53735352 2.76489258 C-84.55976074 2.55807861 -83.58216797 2.35126465 -82.57495117 2.13818359 C-78.90450935 1.36315926 -75.23262891 0.59514292 -71.56030273 -0.17089844 C-69.97918048 -0.50170746 -68.39844021 -0.83434828 -66.81811523 -1.16894531 C-43.37569449 -6.12877437 -23.39124447 -5.17987931 0 0 Z " transform="translate(136.537353515625,565.235107421875)" style="fill: #000000;"/><path d="M0 0 C5.48299513 8.22449269 7.50314026 20.93998595 7.6640625 30.67578125 C6.6494399 34.22696034 4.77911168 36.66002095 2 39 C-0.87569919 40.49249217 -3.85380221 41.46161516 -6.9375 42.4375 C-14.46213483 44.99313222 -21.39587551 47.99080905 -28.41015625 51.71484375 C-31 53 -31 53 -33 53 C-31.43166337 48.50924375 -29.01069961 44.71360463 -26.4375 40.75 C-22.8033956 35.07434529 -19.5434101 29.32354215 -16.5 23.3125 C-12.13058106 14.75302589 -6.82814342 6.82814342 0 0 Z " transform="translate(87,507)" style="fill: #000000;"/><path d="M0 0 C0.99 0.33 1.98 0.66 3 1 C5.17221284 11.59995106 5.3402923 22.01061427 5.31567383 32.79077148 C5.31252472 35.66494107 5.33601158 38.538067 5.36132812 41.41210938 C5.39979519 53.24130301 4.37181374 64.41014967 2 76 C0.68 75.67 -0.64 75.34 -2 75 C-3.52144402 65.07822407 -4.38546819 55.43035289 -4.375 45.375 C-4.37628906 44.06136475 -4.37757812 42.74772949 -4.37890625 41.39428711 C-4.28218226 27.41547206 -2.3301071 13.77149068 0 0 Z " transform="translate(91,574)" style="fill: #FFFFFF;"/><path d="M0 0 C2 1.5625 2 1.5625 3 4 C3.53630494 10.64583281 2.11430775 15.12035354 -0.625 21.125 C-0.98674316 21.95394775 -1.34848633 22.78289551 -1.72119141 23.63696289 C-3.37466907 27.41764286 -5.07845292 31.17428271 -6.796875 34.92578125 C-9.68941631 41.36240164 -11.57661997 47.07666511 -12.5234375 54.06640625 C-14.97695737 69.169631 -23.28134839 80.82735632 -32.69433594 92.37695312 C-35.09686762 95.36349587 -37.37316003 98.44801471 -39.66015625 101.5234375 C-40.10230469 102.01070312 -40.54445313 102.49796875 -41 103 C-41.66 103 -42.32 103 -43 103 C-43.12375 104.299375 -43.12375 104.299375 -43.25 105.625 C-44.79537624 112.5791931 -49.43772431 116.92740506 -55 121 C-60.3 124 -60.3 124 -63 124 C-62.734375 122.1171875 -62.734375 122.1171875 -62 120 C-60.328125 118.9453125 -60.328125 118.9453125 -58.25 118.125 C-52.34221535 115.3926496 -49.57985742 111.6474516 -47.25 105.75 C-45.22045064 100.88231589 -42.16122982 97.6735695 -38.57421875 93.8671875 C-24.83331122 78.56244376 -18.42805922 63.02979805 -14.16796875 43.109375 C-12.82432202 37.74680279 -10.35229193 32.85513807 -8 27.875 C-2.43497685 16.45555341 -2.43497685 16.45555341 -1 4 C-6.52268563 2.8226833 -10.4285876 3.36384535 -15.625 5.3125 C-16.58792969 5.6518457 -16.58792969 5.6518457 -17.5703125 5.99804688 C-20.3215359 6.976197 -23.02918133 8.01257236 -25.7109375 9.16796875 C-28 10 -28 10 -32 10 C-31 7 -31 7 -29.20581055 6.03271484 C-28.44051025 5.76152832 -27.67520996 5.4903418 -26.88671875 5.2109375 C-26.05076172 4.90929687 -25.21480469 4.60765625 -24.35351562 4.296875 C-23.47373047 3.99265625 -22.59394531 3.6884375 -21.6875 3.375 C-20.81931641 3.06304688 -19.95113281 2.75109375 -19.05664062 2.4296875 C-6.98570676 -1.8687878 -6.98570676 -1.8687878 0 0 Z " transform="translate(166,568)" style="fill: #C3C3C3;"/><path d="M0 0 C4.0200267 6.03004006 3.35656355 13.01138317 2.06808472 19.93609619 C1.48413616 22.78292285 0.85508736 25.61676509 0.19458008 28.44677734 C-0.31878519 30.6519988 -0.804586 32.86206465 -1.28710938 35.07421875 C-3.03935284 42.87941967 -3.03935284 42.87941967 -4 46 C-4.99 46.495 -4.99 46.495 -6 47 C-5.84402344 45.91460938 -5.68804687 44.82921875 -5.52734375 43.7109375 C-5.33026432 42.26568831 -5.13367573 40.82037213 -4.9375 39.375 C-4.83373047 38.66214844 -4.72996094 37.94929687 -4.62304688 37.21484375 C-4.04317551 32.85581074 -4.15245223 29.35227235 -5 25 C-6.03486949 8.47601833 -6.03486949 8.47601833 -1 1 C-0.67 0.67 -0.34 0.34 0 0 Z " transform="translate(154,695)" style="fill: #FFFFFF;"/></svg>